<?xml version="1.0" encoding="utf-8"?>
<!-- Generator: Adobe Illustrator 19.1.0, SVG Export Plug-In . SVG Version: 6.00 Build 0)  -->
<svg version="1.1" id="Laag_1" xmlns="http://www.w3.org/2000/svg" xmlns:xlink="http://www.w3.org/1999/xlink" x="0px" y="0px"
	 viewBox="0 0 275 40" style="enable-background:new 0 0 275 40;" xml:space="preserve">
<style type="text/css">
	.st0{fill:#FFFFFF;}
</style>
<path class="st0" d="M10.7,40V10.6H0V0h33.5v10.6H22.9V40H10.7z"/>
<path class="st0" d="M70.8,40l-5.2-22.7L60.5,40H47.8L36.3,0h13.6L55,24.5L61.1,0h9.1l6.1,24.5L81.4,0H95L83.5,40H70.8z"/>
<path class="st0" d="M99.9,40V0H112v40H99.9z"/>
<path class="st0" d="M117.8,34.4l6.3-9c3,2.9,7.5,5.2,12.9,5.2c2.3,0,4.4-0.6,4.4-2.2c0-3.8-22.3,0.1-22.3-15.7
	c0-6.8,5.6-13.3,16.6-13.3c6.5,0,12.4,1.9,17,5.6l-6.5,8.6c-3.5-2.6-8-4-11.8-4c-2.4,0-3.1,0.8-3.1,1.8c0,3.8,22.3,0.5,22.3,15.4
	c0,8.8-6.5,13.9-17.3,13.9C127.9,40.7,122.1,38.2,117.8,34.4z"/>
<path class="st0" d="M168.5,0v29.6h-10.7v10.6h33.5V29.6h-10.7V0H168.5z"/>
<path class="st0" d="M197,40V0h30.4v10.6h-18.2v4h17.8v10.6h-17.8v4.4h18.2V40H197z"/>
<path class="st0" d="M275,0v40h-17.9c-12.6,0-22-7.2-22-20c0-12.8,9.4-20,21.9-20L275,0z M247.4,20c0,5.4,3.1,9.4,9.6,9.4h5.8V10.6
	h-5.8C251,10.6,247.4,15,247.4,20z"/>
</svg>
